<svg viewBox="39 -13 1013.9999999999998 1039.9999999999998" xmlns="http://www.w3.org/2000/svg" overflow="visible" xmlns:xlink="http://www.w3.org/1999/xlink" width="1013.9999999999998px" height="1039.9999999999998px"><g id="Master/Composition/Color Comp" stroke="none" stroke-width="1" fill="none" fill-rule="evenodd"><g id="Color/Bottom" transform="scale(1 1)"><g id="Color/Bottom/King of Hearts" stroke="none" stroke-width="1" fill="none" fill-rule="evenodd"><g id="Clor" transform="translate(42.000000, 201.000000)"><path d="M161.424086,438.223201 C191.000126,439.737306 223.884295,439.235898 240.951043,468.108875 C242.572458,469.525415 244.435361,469.49454 245.501108,467.414807 C263.31696,423.367431 312.475652,392.65925 359.61127,400.117393 C395.260223,399.17262 409.496888,428.083882 420.525221,457.532367 C426.345558,475.320018 426.706557,493.374427 420.316999,510.933604 C403.488042,554.859949 398.256638,602.539449 375.394193,644.340366 C363.253294,669.558989 355.439453,721.816619 330.613076,735.128643 C282.470849,747.56876 248.969409,694.675107 210.77991,674.12477 C167.912211,648.095989 121.741309,626.513195 84.7136607,591.987641 C67.9327545,574.855773 72.111964,548.907268 69.2338292,527.029309 C55.1782801,471.533519 110.036566,432.163075 161.362483,439.428557 C161.382196,439.025949 161.403141,438.624575 161.424086,438.223201" id="Fill-1" fill="#676b90"/><path d="M58.0924943,240.278611 C57.8803741,229.198454 59.5600703,214.271173 71.1181568,228.676977 C85.1994874,236.096956 113.367082,264.293614 127.207927,246.701142 C128.057641,235.291372 141.891087,244.273322 142.912224,233.228832 C147.369216,225.618219 153.843816,179.140346 164.234008,186.140929 C165.891506,210.388383 213.569229,273.797041 208.658398,213.604568 C209.537711,219.592945 213.950305,225.886336 218.325902,218.372885 C224.913962,211.102954 260.62909,148.712651 257.048944,185.556727 C257.140205,214.744684 263.718399,242.589591 274.134489,269.724847 C275.555202,278.650222 287.932171,276.903765 288,285.214191 C286.797574,291.111556 279.14768,289.039176 275.093963,291.508813 C238.125846,309.39031 196.391189,304.312059 158.017158,315.477079 C136.681809,323.423455 114.195831,328.236049 93.8569529,338.886972 C85.3795429,343.326906 77.933136,340.522737 73.7844588,332.790364 C61.3248614,304.323128 60.5910734,270.947366 58,240.278611 L58.0924943,240.278611 Z" id="Fill-3" fill="#e2615c"/><path d="M514.23023,707 C502.427668,704.873838 453.34333,693.60038 467.560727,675.065717 C474.769425,663.144685 474.81387,663.037576 487.711503,668.416384 C501.078275,675.715754 530.959992,681.366641 526.562426,701.244467 C524.108086,706.518628 519.622865,706.758699 514.23023,707" id="Fill-5" fill="#e2615c"/><path d="M546.356421,554 C559.853335,557.915656 598.117122,577.201432 597.94629,592.978357 C598.380128,596.063196 596.132281,598.733856 593.135971,597.817007 C574.800472,592.205304 554.567392,591.111476 540.138894,576.00068 C530.212235,569.604862 532.351929,554.916849 546.356421,554" id="Fill-7" fill="#e2615c"/><path d="M50.5220657,588.002073 C54.7977443,589.932787 61.3176255,596.474472 56.0106586,601.638123 C43.6974009,614.915909 16.3066846,639.239972 0.134493102,619.660159 C-2.66205201,607.322664 38.9527287,587.768529 50.5220657,588.002073" id="Fill-9" fill="#e2615c"/><path d="M86,749.389569 C85.4958454,758.90036 79.4174299,768.199333 79.4969025,777.744809 C81.8872907,784.946651 66.0834103,791.745913 63.6868134,782.56214 C60.1738741,777.085817 53.5515677,772.898987 56.9353639,765.700861 C61.0729084,756.287927 62.4475368,744.308393 70.3662408,737.258912 C79.7787821,730.489378 85.9590219,740.231808 86,749.389569" id="Fill-11" fill="#e2615c"/><path d="M632.423988,723 C617.075748,719.579037 587.353899,703.552196 601.899722,685.214359 C605.05947,681.135046 608.775793,679.634991 612.836544,682.429597 C621.630677,687.744395 657.075515,719.60611 632.423988,723" id="Fill-13" fill="#e2615c"/><path d="M617,771.60134 C613.711641,795.917572 592.600573,781.72271 583.113011,771.237145 C575.03244,764.10292 580.113998,756.373761 587.567446,750.675112 C603.78323,733.649009 614.404581,759.18255 617,771.60134" id="Fill-15" fill="#b5b7c9"/><path d="M538.284827,796.971038 C521.422994,798.071921 497.22063,767.467351 520.826203,760 C533.024363,760.271178 541.165588,773.587519 546.291774,783.463131 C547.319995,786.137594 552.116703,787.505924 548.912681,791.629574 C545.481133,796.048037 543.485613,797.135237 538.284827,796.971038" id="Fill-17" fill="#e2615c"/><path d="M363.15403,801.948774 C348.800468,798.148133 340.896578,781.771444 337.412539,768.300769 C335.139334,761.9505 342.810792,761.423244 346.99091,759.431385 C350.518758,756.699903 353.585395,758.241396 355.2185,761.009494 C358.543123,769.258863 383.36219,803.502472 363.15403,801.948774" id="Fill-19" fill="#e2615c"/><path d="M507.170849,301.480972 C529.17568,295.945939 492.472764,340.206714 475.037101,330.640998 C453.406189,317.881431 496.005993,300.874359 507.170849,301.480972" id="Fill-21" fill="#e2615c"/><path d="M71.7867655,108.395332 C69.9333269,96.5954779 75.0612564,84.1610642 88.2917855,89.1190274 C99.457019,93.7634143 108.727929,119.582847 91.3668088,121.785289 C80.7256425,125.16426 67.6400682,121.740845 71.7867655,108.395332" id="Fill-23" fill="#b5b7c9"/><path d="M399,253.286507 C396.763707,263.734636 388.885748,286.168071 375.407354,270.750845 C367.423886,259.365173 374.556011,245.599397 385.578605,239.576025 C396.900747,231.495713 396.824344,244.196155 399,253.286507" id="Fill-25" fill="#e2615c"/><path d="M535.582566,395.021838 C589.819167,403.214746 526.239735,417.689467 506.980056,413.131756 C488.872099,401.394654 525.193721,394.561828 535.582566,395.021838" id="Fill-27" fill="#e2615c"/><path d="M586.871913,468.825931 C582.094776,477.827277 568.379728,477.302644 559.926907,473.012067 C555.596103,471.494031 549.676253,470.886817 550.013816,465.010196 C550.531412,443.681185 589.509904,448.107777 586.871913,468.825931" id="Fill-29" fill="#b5b7c9"/><path d="M490.865072,224.072558 C489.962261,236.715873 476.595983,241.692234 467.899968,248.550776 C456.636969,252.73477 468.326774,226.453362 468.254205,221.059835 C470.80151,207.809286 492.922842,209.329841 490.865072,224.072558" id="Fill-31" fill="#e2615c"/><path d="M659.364089,617.731262 C647.424501,619.282653 646.940481,613.868946 641.004729,607.87471 C632.437193,603.159625 639.186248,593.601417 646.598819,592.07986 C664.934658,590.430265 692.81474,614.850996 659.364089,617.731262" id="Fill-33" fill="#b5b7c9"/><path d="M200.145754,52.8256292 C199.021093,38.8877922 207.882059,39.3384842 218.057565,40.5573446 C228.859911,41.2109725 228.31097,44.909884 227.754725,53.3348364 C226.300212,71.6239678 197.722377,74.2932597 200.145754,52.8256292" id="Fill-35" fill="#b5b7c9"/><path d="M369,156.818398 C368.810942,164.233935 361.669975,185.661286 353.731998,178.588349 C349.614728,170.209561 346.529247,161.433558 347.059352,151.885465 C347.333672,146.938877 353.811081,140.418319 358.932954,140 C366.407554,140.603273 366.253094,152.230546 369,156.818398" id="Fill-37" fill="#e2615c"/><path d="M439,145.634109 C435.140476,155.665842 409.346564,166.561177 411.083843,147.653667 C414.0883,131.601181 435.020791,128.188362 439,145.634109" id="Fill-39" fill="#b5b7c9"/><path d="M170.12266,91 C160.19216,90.7948703 152.434186,88.6379007 157.700397,77.07356 C162.537708,64.1081214 164.414146,63.389546 175.656934,70.4683845 C187.666138,75.3119312 180.804954,90.4964999 170.12266,91" id="Fill-41" fill="#b5b7c9"/><path d="M551.901759,659 C542.235427,658.807408 534.685576,648.856812 541.808917,641.11921 C547.825803,635.4226 590.762414,653.026009 551.901759,659" id="Fill-43" fill="#b5b7c9"/><path d="M689.191481,720.45709 C688.891457,696.043283 711.521833,708.929065 707.526977,726.894451 C704.246883,740.739877 687.001811,732.037951 689.191481,720.45709" id="Fill-45" fill="#b5b7c9"/><path d="M312.244938,281 C309.028111,279.599809 300.416371,250.334588 308.10758,253.196925 C312.111637,254.248926 316.197435,255.162148 316.808606,260.683607 C318.003284,268.081074 325.504603,279.971541 312.244938,281" id="Fill-47" fill="#e2615c"/><path d="M84.0613568,0 C93.9025991,0.315643187 98.8345872,17.4888782 91.4384996,21.5897444 C72.8964977,24.6725678 74.2605303,9.68263546 84.0613568,0" id="Fill-49" fill="#b5b7c9"/><path d="M183.054849,170.009958 C188.171918,169.305885 211.685062,206.181127 199.578089,202.778103 C197.806749,197.204185 173.978244,171.116003 183.054849,170.009958" id="Fill-51" fill="#e2615c"/><path d="M89.3161544,218 C86.6930786,214.007079 76.8439866,210.467238 81.0168946,205.669918 C89.5550613,199.234724 98.0748506,213.134839 89.3161544,218" id="Fill-53" fill="#e2615c"/></g><g id="Ink" transform="translate(59.000000, 316.000000)" fill="#000000"><path d="M398.838751,344.854697 C407.19327,251.781623 326.094692,238.902649 263.167933,287.188624 C248.132762,299.687607 232.82602,311.992894 221.561985,328.338668 C218.106858,335.568363 208.136491,334.191513 205.085018,327.350445 C203.890104,324.614018 202.006387,322.775751 199.016635,322.125571 C175.705947,317.476853 156.549065,297.866613 131.675609,301.509836 C90.5128159,303.698484 37.9008264,324.564668 44.6209801,374.158404 C52.0867203,475.49011 201.955776,541.82935 271.627377,605.618457 C288.141377,618.96255 287.098297,621.447295 296.916832,600.136966 C305.287398,581.96773 312.434659,563.271689 321.86065,545.541663 C351.772987,481.792036 401.069339,417.970851 398.838751,344.854697 M425.416934,343.78258 C428.037597,417.071458 382.769141,478.637372 350.427475,540.869503 C331.0879,571.263833 326.810653,611.119688 300.396647,636.508749 C299.216546,637.59197 295.64415,638.268057 295.444175,637.897937 C292.586505,632.63235 287.614282,637.394572 284.062871,635.254039 C244.067834,611.478705 207.671116,580.780876 169.714098,553.432641 C109.682042,508.507364 33.8581182,465.436392 19.6203789,385.186774 C0.731364901,310.350791 87.9847346,262.666879 152.249599,280.770727 C171.099112,282.177187 197.173654,311.430311 208.427813,307.576118 C267.062512,210.540282 437.203126,199.676 425.416934,343.78258" id="Fill-1"/><path d="M41.6074667,122.440112 C41.5345561,122.443819 41.4616455,122.448763 41.3874992,122.453707 C43.4055154,153.522932 51.0524748,184.032296 52.7541333,215.227584 C53.0210602,221.267414 53.8712715,226.024384 61.4094829,223.316532 C123.589841,206.021384 183.910361,180.294943 248.895922,175.194394 C255.85332,173.359086 272.926751,173.453014 270.170979,162.919461 C264.978263,145.620604 258.090068,128.58005 254.611369,110.835035 C249.890719,97.4156605 256.405711,72.1934656 245.470361,64.1144041 C227.674003,85.4410503 217.051304,112.196994 208.614686,138.66003 C200.186719,151.067204 182.974881,133.86104 176.148475,126.026686 C167.475824,121.23264 150.595174,61.1766759 144.26802,83.9666246 C134.044475,100.271819 147.953093,162.787219 118.987824,153.681127 C95.3783935,143.543061 75.257548,127.078435 53.705678,113.366153 C43.3041821,104.272419 39.5461984,111.499948 41.6074667,122.440112 M142.055987,20.8851836 C152.845515,19.6282759 171.432767,26.5530092 164.55693,40.1058605 C160.318231,46.7586964 151.09319,51.8518297 160.816247,58.5652246 C212.558036,144.007758 183.119467,99.2287221 233.966556,47.6806759 C243.211369,39.7907067 246.210589,37.2571169 237.076995,27.0757938 C223.23758,-9.35475487 262.195304,-4.20477026 277.459564,17.8362246 C284.11667,25.8485477 282.139434,34.3935426 275.027564,41.4097323 C263.840117,46.5856708 291.34841,128.644317 294.963044,142.666809 C298.562849,154.677261 313.131369,190.004153 292.33332,190.368743 C237.168442,187.042943 180.809808,207.60704 127.543076,222.151081 C105.699564,226.030563 35.5212878,261.199261 36.2578081,221.513358 C33.9147837,195.008302 27.7915317,169.105127 22.4999545,143.158696 C17.4777756,128.257481 26.2727675,104.412076 12.6681496,94.7016297 C-0.541021138,90.8703477 0.557580488,76.1718195 0.000247154472,65.03144 C1.84649106,41.2861426 32.7976455,52.5278656 37.409548,69.1222605 C38.3635642,80.7026195 42.4786862,83.4327169 52.7528976,87.8683528 C68.5819057,98.5638092 84.2811577,109.452066 99.9865886,120.330435 C105.960312,124.51024 116.534816,136.20183 117.354133,121.539143 C119.906003,100.692025 122.470231,79.841199 132.269906,60.7675938 C134.679662,56.3875733 130.068995,53.1915426 127.613515,50.13764 C117.294816,38.5313272 125.11602,17.0304195 142.054751,20.6182297 C142.055987,20.7084503 142.055987,20.796199 142.055987,20.8851836" id="Fill-3"/><path d="M131,620.421635 C128.062874,639.41129 130.00969,659.796536 122.748253,677.804838 C113.732803,689.524351 104.850061,673.937374 105.340834,664.607133 C105.299519,649.879456 101.805265,591.899552 118.1435,589.284668 C138.277713,586.076781 126.972406,610.838659 131,620.421635" id="Fill-6"/><path d="M60,567.433286 C51.9590996,584.377975 36.4009324,598.53813 25.2648311,613.811852 C21.3480039,619.475668 17.1503523,616.52379 12.3003048,613.175704 C-9.43600122,604.16134 58.2083643,524.971279 60,567.433286" id="Fill-8"/><path d="M474.999099,386.044871 C487.927077,384.876045 548.03212,406.805865 529.473134,421 C508.335754,412.74096 485.579583,412.735975 463.544667,409.517342 C451.593674,407.551023 451.476982,406.871907 455.037328,395.419156 C457.186198,386.80872 469.303539,388.228009 474.999099,386.044871" id="Fill-10"/><path d="M234.920208,660.298212 C230.617408,675.924248 235.090088,693.20382 229.404688,707.000123 C176.862168,660.646909 226.266248,608.30548 234.920208,660.298212" id="Fill-12"/><path d="M423,613.628581 C422.636507,620.722338 415.146095,623.583437 409.341302,621.145112 C335.069284,589.424762 374.16877,543.951962 423,613.628581" id="Fill-15"/><path d="M465.260413,513 C450.488553,508.603821 421.73581,503.482536 416,486.694326 C418.948968,464.453671 444.047742,482.78196 454.342723,489.240195 C462.752378,494.821903 491.356506,510.47629 465.260413,513" id="Fill-17"/></g></g></g><g id="Color/Top" transform="scale(1 1)"><g id="Color/Top/Pointing" stroke="none" stroke-width="1" fill="none" fill-rule="evenodd"><g id="Color" transform="translate(181.000000, -8.000000)"><path d="M485.222325,189.453219 C504.602042,185.225825 519.818501,217.233735 536.880479,202.06037 C556.437132,182.807325 575.743028,163.301057 595.106341,143.855751 C605.363916,130.886352 620.399924,119.309671 634.944965,133.524076 C656.201839,152.757193 678.203953,171.564756 694.722235,195.242145 C765.524583,271.090212 728.706753,238.317948 677.568859,307.05002 C653.690761,335.966517 691.497555,372.622684 660.464698,400.452438 C650.761364,411.180358 639.586301,419.596458 625.549804,423.690207 C616.876446,426.218905 612.11559,431.878876 611.30942,440.796731 C610.653235,448.039337 608.63781,454.434354 603.00751,459.631257 C598.885263,464.893811 597.825993,473.027382 594.140812,478.757692 C581.303023,501.755135 546.283843,494.621555 534.63539,473.570167 C528.100491,462.419039 527.498207,462.525721 516.280961,469.102448 C508.910599,473.027382 498.375317,482.444645 492.348962,471.651076 C485.593773,459.019305 472.583736,450.314814 475.637339,434.167249 C476.087294,430.908194 473.784788,429.672566 470.506208,430.011367 C439.256575,436.752219 444.58339,418.833276 425.537624,400.908471 C390.161057,420.461632 363.607833,456.082638 322.345522,463.936024 C311.554796,466.416658 310.959543,465.950073 305.113639,456.99705 C290.234647,439.538829 288.455917,433.563503 297.556967,411.900163 C310.006903,385.574498 323.536029,358.987406 345.635398,339.34046 C369.3225,314.714662 397.943878,295.445204 420.930269,270.518119 C428.318207,258.580363 419.849907,242.632093 421.728236,229.264105 C422.451212,197.259712 460.799359,193.569242 485.222325,189.453219" id="Fill-1" fill="#b4b6c8"/><path d="M736.660613,66.5113971 C734.726058,86.7442417 720.600179,73.8548049 719.349096,84.2279117 C720.171838,96.6568437 704.423882,94.5669505 700.54892,104.940057 C698.567552,108.53364 693.728239,108.805009 689.682409,107.6373 C674.958492,101.274815 680.040063,102.852514 666.554354,106.914824 C650.169739,98.8136981 659.15436,127.809057 642.093294,117.078824 C628.325536,99.9214942 632.52936,129.490135 618.478382,119.465931 C606.052992,109.559203 590.269926,85.1277757 606.738805,72.6953194 C615.708212,67.7719117 612.967299,52.3614456 627.379909,58.7626981 C637.829783,62.9765524 637.976074,43.4039214 651.66425,54.1059602 C652.582959,23.4459699 671.824349,48.3731447 676.618019,42.0553 C677.273404,35.0701932 674.910508,27.249834 681.869288,22.7023485 C688.252266,18.3087563 693.079876,6.91478544 702.193234,12.1412806 C707.013821,14.8561447 710.951981,15.236766 714.742679,10.145368 C721.190025,-0.130233981 731.323909,15.8112223 738.290882,6.96412524 C747.353915,-4.61075825 758.969437,13.0141252 768.456129,4.83781456 C781.335607,-9.42256408 804.159376,24.2530282 809.703228,35.032601 C814.649041,45.1225913 809.78047,53.5514748 798.511365,54.4948049 C789.54547,54.4630864 781.285283,49.2448146 775.467574,59.677834 C771.916794,65.858232 761.943245,60.7456883 757.06297,63.7342709 C750.275058,70.1778146 743.302234,66.5865816 736.636036,63.2972612 C736.644228,64.3686398 736.65242,65.4400184 736.660613,66.5113971" id="Fill-3" fill="#f4c1bf"/><path d="M838.746315,661.517691 C836.57187,678.392235 801.71508,654.439605 791.682611,652.832282 C779.054648,647.512865 766.730451,641.481298 754.123599,636.111431 C747.527549,633.300376 747.038475,633.578431 743.767426,639.750786 C734.794031,650.16788 711.784093,721.276077 695.890944,702.7684 C655.995636,660.33625 656.689957,691.729494 699.227673,614.358605 C701.141747,608.00088 689.454401,605.966502 685.535944,602.446817 C675.850636,596.255691 650.894957,580.685778 649.357364,570.117337 C660.747981,563.736148 692.475636,586.203471 706.401932,589.698518 C726.03292,601.485943 739.363414,536.112487 769.792735,565.829187 C786.645265,577.740975 768.675019,592.731313 762.90113,605.775266 C749.570636,621.79218 826.642611,624.920006 838.746315,661.517691" id="Fill-6" fill="#f4c1bf"/><path d="M698.039248,165.545044 C703.97055,130.171037 711.981506,153.042505 725.975433,143.566281 C731.341905,136.033209 737.187484,141.048246 743.130529,144.447301 C752.227697,142.968029 739.073382,130.400056 764.031586,137.720468 C765.913961,132.464727 762.797415,127.804902 761.309599,122.879837 C758.54886,115.708988 767.556783,108.171242 773.971889,112.736422 C788.110253,127.689225 798.211432,113.498259 808.842213,102.895638 C815.795141,96.4726047 822.409876,81.0559224 833.486884,89.436129 C842.237639,95.1195262 849.464174,102.640913 852.688755,112.439632 C856.19986,124.189682 869.230875,168.584212 842.781332,154.931907 C828.263675,140.385728 822.812655,146.046925 808.406555,156.689273 C801.000354,163.593713 800.615189,175.391669 790.788791,180.356463 C781.971103,187.258565 773.439939,185.882118 763.423308,181.78666 C753.916315,177.439983 761.559721,194.26583 752.550624,193.01207 C745.435646,192.105344 746.104987,196.131863 745.742133,200.617587 C745.392197,210.673367 732.613653,216.657059 725.776979,207.407517 C715.930619,193.269132 697.024668,185.108596 698.039248,165.545044" id="Fill-9" fill="#696d91"/><path d="M870.69401,246.89576 C855.628538,310.92642 816.891445,266.80343 813.235246,284.446071 C811.420697,289.341342 803.276434,294.531593 800.651229,287.757578 C796.807684,271.756058 777.523974,262.110665 780.265829,244.706818 C781.57254,239.317572 780.400152,233.238867 786.345747,229.35847 C792.902868,220.185982 798.84375,209.8921 812.337398,215.164291 C820.825718,219.97294 825.053382,205.695652 833.47454,215.262617 C835.563629,217.330992 837.574951,215.573986 838.208865,213.118156 C845.06409,175.752794 874.29483,228.179718 870.69401,246.89576" id="Fill-11" fill="#e25f5b"/><path d="M47.7426809,114.947565 C39.8833012,115.529228 37.523014,111.137676 34.2711412,108.410842 C22.8442415,101.241271 37.3522347,92.0754334 42.8784162,86.1785393 C54.5738516,76.7614239 66.4671554,67.5827901 78.4099262,58.4704659 C84.423712,53.8823123 86.0278593,53.9428052 92.7165177,58.0644655 C110.10538,71.112318 118.935258,81.1262191 96.9859994,92.1859493 C82.4414947,101.931122 64.5709166,110.817762 47.7426809,114.947565" id="Fill-13" fill="#f4c1bf"/><path d="M21.7057419,61 C14.7258807,59.0980577 9.89475183,52.3743395 5.11874869,47.2543577 C-2.53317776,39.5268366 4.82083494,22.1757223 17.138513,24.1563251 C47.9761049,26.9892799 58.2682041,58.6742298 21.7057419,61" id="Fill-15" fill="#f4c1bf"/><path d="M788.375235,318 C794.667423,320.447165 806.840085,331.695187 801.812451,338.65332 C790.892581,346.575737 801.356035,360.300323 792.132432,363.946963 C784.079278,364.911247 781.838369,352.460222 776.086116,348.271466 C767.840043,337.823095 777.552999,322.423947 788.375235,318" id="Fill-17" fill="#f4c1bf"/><path d="M30,261.634422 C28.5724733,267.621088 24.5197593,272.254185 25.2659396,279.068944 C25.387356,283.678582 20.1310872,285.459099 16.5239595,282.666338 C11.8500179,276.957659 -2.8118952,272.906338 0.475777719,264.235994 C5.31593011,249.987167 24.9028692,244.561165 30,261.634422" id="Fill-19" fill="#f4c1bf"/><path d="M220.821251,161 C228.162716,161.218591 248.413264,164.503331 241.631593,175.999332 C236.966643,179.94337 232.823001,192.949529 225.508359,185.984 C216.798897,176.984166 193.633921,162.894455 220.821251,161" id="Fill-21" fill="#f4c1bf"/><path d="M306.902251,159 C315.690811,160.673891 340.449239,176.187693 332.421149,186.071345 C330.039432,187.879288 327.412778,190.5743 324.377897,187.82217 C319.332202,180.465675 293.270945,167.114177 306.902251,159" id="Fill-23" fill="#f4c1bf"/></g><g id="Ink" transform="translate(179.000000, 1.000000)" fill="#000000"><path d="M597.472234,436.105247 C597.697338,428.580861 595.203614,423.241163 587.710717,420.512062 C581.907269,419.776402 572.68389,407.868559 568.342441,414.951783 C564.580166,432.966664 533.398648,450.802029 538.053131,466.500811 C542.452028,475.596249 550.444372,479.044584 560.059338,475.497692 C576.570441,468.902561 598.282372,456.42332 597.472234,436.105247 M483.504234,441.00261 L483.737545,441.00261 C476.545959,483.329484 526.096855,437.190552 535.58989,424.117619 C553.153821,402.077139 557.693407,357.125589 521.080097,391.572566 C512.730166,413.113219 478.325683,415.032741 483.504234,441.00261 M434.382441,392.39505 C429.249614,427.134179 484.125614,399.297587 497.0972,388.365931 C504.885545,380.082418 537.092924,347.592509 516.777338,341.395128 C493.243476,342.051004 471.494028,353.037804 450.1772,361.871596 C435.938234,366.990713 434.601683,379.589631 434.382441,392.39505 M433.309683,240.024172 C436.081269,262.492907 433.9932,298.930978 460.145062,310.570135 C464.235614,312.3911 467.519545,310.463364 467.2792,306.027109 C468.057683,282.484802 459.434579,257.825512 462.41251,234.925001 C468.57589,224.484959 480.073752,224.849856 486.674441,234.851083 C493.204786,245.437788 550.433821,282.383898 517.090372,286.220596 C470.682717,258.467308 494.217752,271.100252 484.057614,310.10316 C476.568234,334.822289 445.155752,328.941699 433.368303,310.787196 C424.523614,305.452191 421.982993,271.257474 413.872234,277.219022 C386.695683,305.087294 357.678441,331.073589 333.648648,361.808238 C317.812855,381.617097 303.068579,404.217242 301.025062,430.133139 C311.352855,442.152446 353.268993,399.269427 365.921683,392.790453 C412.730303,364.444648 456.346441,326.446085 513.229614,322.118947 C547.561407,320.754397 534.76451,348.467793 544.518993,355.365636 C596.664441,361.22276 566.424372,385.683762 579.734786,392.26716 C593.128441,391.850638 608.224441,395.29428 616.391476,406.681177 C620.61451,424.277189 631.202579,409.884292 640.796441,405.216896 C664.642166,391.569046 679.33251,381.700402 668.969545,351.679121 C663.193062,333.763971 651.147683,306.989217 671.082234,295.985989 C694.917407,277.829139 718.742028,258.930762 737.147752,235.025905 C742.642855,208.570289 684.307062,187.355814 670.342441,165.975903 C655.806855,149.770254 641.039131,133.752334 621.80451,123.205521 C617.883959,120.641856 616.086648,121.107657 612.805062,125.118004 C589.13989,152.012434 562.680855,176.369013 537.928855,202.172273 C508.0792,225.231179 429.495821,145.226055 433.309683,240.024172 M719.742097,64.2412237 C718.919062,83.3320222 734.536786,103.118589 699.9412,100.838863 C674.506855,98.5028185 656.857338,80.7296382 659.191614,119.127123 C665.3632,132.627137 681.490924,141.628711 690.468097,154.180697 C692.804717,156.379465 695.441476,154.857692 695.374648,151.795374 C692.349821,68.6915585 751.967062,146.30784 753.028097,123.171495 C751.31989,103.179601 766.224786,70.0209098 788.4772,90.5736429 C791.988579,92.6492143 797.399269,103.512819 801.270579,97.69324 C804.133614,85.2433314 802.498097,57.1732518 822.840648,64.75513 C826.442303,66.2158911 829.04389,69.7299309 833.499062,69.63724 C850.053545,73.9397389 839.342372,95.1319215 823.9732,83.9515258 C807.057614,77.8879005 823.137269,142.261121 777.818786,103.34621 C753.397407,108.394929 792.522028,164.639512 719.744441,134.830598 C709.1892,135.629617 716.317476,158.044381 711.930303,165.530048 C704.061062,173.595327 728.965476,194.764043 731.73589,186.779722 C730.589269,169.976863 736.641269,150.487142 757.384786,159.687004 C767.272924,161.374212 786.002234,187.225577 788.813683,166.935664 C792.444648,154.835399 792.565407,122.517966 812.089614,131.00798 C824.560579,139.855851 825.751752,141.979528 830.32651,125.791479 C832.157821,122.280959 836.670441,121.992327 839.392786,124.686228 C850.039476,133.599804 844.13989,148.05958 842.271062,159.658844 C823.338924,188.01873 814.945614,111.190907 798.901131,183.114327 C790.893545,201.167926 770.388028,184.523463 758.608786,179.670685 C747.795614,177.248989 751.717338,201.559809 749.992717,208.78031 C750.011476,218.044704 755.28851,223.389095 762.566855,227.4628 C771.507683,227.556664 768.046717,210.134301 773.163131,204.272484 C788.442028,172.507676 824.258097,245.543385 824.338993,200.666926 C828.100097,157.261788 861.518579,188.73327 856.0692,203.813722 C840.93451,211.663114 844.973476,192.816362 836.935407,221.132835 C820.384441,258.900256 785.842786,188.330828 780.886993,249.212301 C779.774372,253.849191 780.441476,258.003854 784.57189,261.076732 C792.514993,268.311313 795.913821,273.020947 805.742166,264.776153 C817.00789,256.934975 828.146993,248.910762 839.355269,240.988626 C844.872648,235.767432 848.919821,242.420055 853.802924,245.319285 C872.101959,260.769327 823.004786,275.084786 813.793131,283.479762 C800.265821,292.874392 790.533614,284.113345 781.446234,273.812926 C770.956648,270.15457 762.8752,244.156542 753.349338,249.706261 C732.738303,270.92895 711.256166,291.642425 690.477476,312.577655 C713.12851,386.14487 697.993821,403.620032 626.155338,432.239217 C623.2372,433.188418 621.383614,434.860374 621.002579,437.519076 C616.420786,463.736512 595.338441,482.327484 572.867959,494.054638 C530.306993,517.963015 530.649338,469.662861 513.339821,474.30327 C476.167269,499.376737 446.603683,482.666568 456.662993,436.942985 C452.234786,424.205617 423.474303,443.375027 417.240579,421.078767 C410.396028,413.422971 418.140993,389.416036 410.638717,389.78328 C379.213338,407.482542 351.984028,432.307268 320.117821,449.682699 C258.121752,478.734833 284.744924,387.508247 303.415614,361.536032 C331.028303,321.781036 368.647545,288.497975 410.360855,264.100331 C424.005407,258.460268 413.76789,240.911189 415.816097,229.213367 C416.320234,212.06321 422.442579,187.48605 440.413338,181.549142 C461.172097,162.605006 495.238924,176.146085 518.792717,185.148833 C522.369752,186.921692 526.650234,188.955025 529.718441,185.402266 C551.326028,161.672231 574.783683,138.595725 602.741062,122.542605 C617.048028,114.179308 592.722786,106.805104 587.70251,100.57135 C563.789959,70.2673033 663.517821,24.3888443 684.234372,8.24186066 C772.166579,-25.4436429 640.292303,60.9301651 625.943131,70.4515117 C621.266372,75.8428349 601.0012,82.589322 608.403821,90.4774321 C615.750166,92.6550808 642.150579,118.495886 645.312579,108.70468 C639.951131,43.8199005 700.057269,99.4191674 705.490234,80.274397 C700.178028,68.7772096 698.07589,49.6277459 712.534097,44.7362494 C725.381407,37.6788372 750.39251,73.14776 747.926924,47.6695047 C750.942372,-6.43262881 797.493062,57.0570948 790.888855,18.9470691 C790.200648,11.8004859 794.426028,7.34311124 798.819062,2.98781382 C815.940993,0.0404789227 809.028441,31.1939965 807.646166,41.4768162 C801.49451,65.5459356 771.314234,38.2455422 764.565821,46.8470199 C763.639614,95.1905867 749.818028,77.4256194 719.742097,64.2412237" id="Fill-1"/><path d="M653.55458,566.502261 C739.450713,577.931546 717.727874,612.389095 764.908575,560.850816 C767.33107,558.638922 770.367092,556.141473 774.338626,557.28838 C781.64358,566.205001 766.991522,586.089803 761.59506,595.185482 C751.699009,605.566166 826.92984,621.120806 828,636.025923 C822.136367,656.018394 772.733387,622.350806 757.899847,620.23722 C739.365241,605.244329 703.489128,702.464638 687.146358,692.245458 C660.536377,672.661427 737.882941,613.938591 717.416427,604.751627 C709.370323,595.674673 626.023137,578.647778 653.55458,566.502261" id="Fill-4"/><path d="M729.138954,391 C741.420386,396.475667 748.674029,434.251206 761.612328,429.336696 C779.396928,420.551496 797.484787,412.267705 816.254102,405.81968 C835.428544,397.911946 851.274155,406.444098 825.675057,419.021496 C810.281409,427.680172 794.657095,435.932332 779.261105,444.593351 C767.518281,451.199531 766.205717,450.114707 774.89721,462.933437 C782.250379,478.233438 808.2628,507.37256 796.93447,522.994729 C779.359459,523.518397 766.201034,484.878278 754.478115,472.313767 C747.886022,455.640749 735.791933,470.289387 725.543161,474.468185 C713.981825,477.347772 655.072168,526.102761 662.674736,492.36661 C681.618514,474.475214 705.903877,463.41493 727.362719,448.868214 C751.58017,442.424875 703.963717,399.598929 729.138954,391" id="Fill-6"/><path d="M-0.000468246445,183.864373 C31.0032995,129.574215 102.59701,101.235064 155.024224,66.9191123 C181.707247,49.9924548 207.911489,32.0503384 234.310053,14.8870918 C252.741404,9.40689315 247.522797,31.6263521 235.525153,36.3651603 C160.390328,90.4526945 78.2868256,135.66814 -0.000468246445,183.864373" id="Fill-8"/><path d="M704.282446,769.784225 C701.340852,784.909826 724.670934,784.706663 734.181032,790.796832 C739.621399,793.036313 745.72131,789.609566 750.776259,792.756818 C769.682821,821.530691 719.715561,805.948268 707.24044,800.531001 C686.096345,791.860791 699.275528,873.864331 672.662951,859.250745 C654.246068,848.60763 687.153023,794.465495 672.86796,786.548041 C664.623064,781.898798 651.357191,782.617498 646,774.545031 C650.429377,761.640122 675.230841,774.742321 683.608115,769.838245 C688.277646,766.153141 688.309276,756.970915 693.195531,752.843082 C703.643987,748.499169 705.343809,761.970114 704.282446,769.784225" id="Fill-11"/><path d="M307,58.6871856 C252.960506,92.9959348 196.199077,129.327173 141.918414,165.755332 C86.7526828,172.956654 305.48274,18.4884624 307,58.6871856" id="Fill-13"/><path d="M816.533337,804.844258 C815.662411,833.041127 803.612844,836.969458 793.924223,808.388678 C793.257329,797.80003 791.686863,787.217252 790.102406,776.711961 C785.891178,761.03738 759.326168,766.065785 753,753.278163 C757.084144,733.333607 787.297253,761.457686 790.617733,742.20816 C790.737821,735.713382 796.022841,720.3147 803.977771,728.191321 C813.556797,738.531073 807.3752,757.159533 819.309343,764.889399 C829.30343,768.272976 849.600567,783.017718 829.325582,788.45234 C825.454797,789.208421 821.167786,785.071111 817.924255,788.102477 C813.552134,793.492485 816.175406,797.717848 816.533337,804.844258" id="Fill-15"/><path d="M348.919435,18 C386.064234,28.3438367 413.771408,59.8530601 447.263236,78.5165839 C458.465132,86.7521747 473.345824,91.1426989 481.410063,102.96406 C485.432791,113.759914 467.719639,107.452696 463.435145,104.072495 C418.447962,86.8164149 383.183645,55.9285692 347.935762,24.3294096 C344.967136,22.2608758 345.504752,18.6832819 348.919435,18" id="Fill-17"/><path d="M276.855425,137 C244.673075,135.608061 335.919944,69.7377486 341.80786,89.7980507 C343.989874,99.8340502 326.861069,99.9440017 327.150831,109.087523 C312.659213,119.474431 295.287572,134.60563 276.855425,137" id="Fill-19"/><path d="M610.491702,561.575513 C581.066584,551.128281 592.779861,596.335346 578.230429,583.776465 C568.520599,575.541382 586.650561,558.426151 573.680566,553.154623 C567.961142,550.643314 557.76959,549.794915 558.003973,541.81926 C561.012089,534.085503 571.687719,537.64621 577.9772,538.617312 C589.082729,544.554939 589.2594,516.010857 599.509842,526.231382 C604.866502,532.409739 594.470012,542.624421 603.057393,546.183959 C611.087671,546.791628 625.41921,560.738799 610.491702,561.575513" id="Fill-21"/><path d="M439.48097,26 C460.140987,35.4671091 480.207479,51.5383809 495.399596,68.699511 C504.301291,103.879946 410.824734,28.0674209 439.48097,26" id="Fill-23"/><path d="M590.300173,617.399712 C594.59091,617.287927 597.222954,620.422623 598.845205,615.860604 C616.559483,609.848907 608.283651,619.424792 616.082212,630.033808 C621.721298,635.753687 613.83222,649.409149 606.534441,645.992047 C602.811492,643.864596 599.458839,645.243674 596.630479,646.920454 C588.406371,651.405988 579.534537,640.941704 579.047862,633.368541 C578.35194,627.515697 585.396977,619.54599 590.300173,617.399712" id="Fill-25"/><path d="M107.470843,214.918993 C43.1477788,213.518997 104.238873,187.355759 130.652974,198.960005 C148.697947,212.703233 115.982801,215.55001 107.470843,214.918993" id="Fill-27"/><path d="M199.671025,252 C145.135079,249.132992 198.871333,228.075676 221.254512,237.337502 C239.921406,248.925681 207.830693,251.581846 199.671025,252" id="Fill-29"/><path d="M249,208.774596 C260.980338,203.311461 318.940158,192.825784 326,203.833732 C323.450417,208.626198 318.401795,207.559799 314.337038,208.23622 C292.295897,208.932198 270.720239,215.997807 249,208.774596" id="Fill-31"/><path d="M777.641,871.0289 C772.772923,856.5859 781.819077,859.0559 792.035231,860.423264 C797.479077,860.786082 794.880615,866.082991 796.279077,869.757264 C795.819846,877.433173 783.287923,879.498991 778.108308,884.425991 C771.892538,889.154445 759.238308,862.883809 777.641,871.0289" id="Fill-33"/><path d="M512.80619,32 C523.420837,33.1016965 532.155416,50.0156996 529.528713,59.9937531 C519.382911,60.4439086 491.534701,36.4292938 512.80619,32" id="Fill-36"/><path d="M364,119.752293 C367.469591,109.97168 376.453125,105.973748 386.178898,107.221792 C398.83065,114.387567 376.743516,131.72164 368.015526,129.861216 C363.104434,127.875057 367.646149,122.38343 364,119.752293" id="Fill-38"/><path d="M251.713095,277.697875 C239.047091,279.479294 232.173948,273.132917 244.405016,265.23748 C254.02295,262.605271 264.417889,260.804787 274.241535,262.95083 C286.095268,274.186277 256.182342,277.006757 251.713095,277.697875" id="Fill-40"/><path d="M485.499439,134 C492.09081,136.737408 502.410058,135.558869 507,140.881069 C500.888972,146.905789 485.562093,151.739858 477.411349,147.229191 C469.027395,136.721662 477.79307,135.235467 485.499439,134" id="Fill-42"/><path d="M108.560007,273.204464 C140.736851,273.469893 106.693183,289.994654 93.7847599,286.520162 C84.0121371,278.450875 102.637346,271.72906 108.560007,273.204464" id="Fill-44"/><path d="M643.696838,247.190841 C628.843635,267.319618 635.376087,263.000782 646.473159,282.355826 C650.18822,306.289961 633.275658,290.839924 626.429901,280.447285 C614.712088,274.613808 607.913269,302.073117 596.452435,305.427132 C594.330884,306.498635 592.210507,306.060186 590.514909,304.16923 C567.685942,286.293657 613.095109,272.891667 601.613154,255.589359 C595.954903,247.349105 589.313323,239.236633 584.279333,230.750191 C588.36989,204.510097 612.178665,253.885975 622.328784,246.977478 C629.071279,243.117021 640.821948,234.542654 643.696838,247.190841" id="Fill-46"/></g></g></g></g></svg>