<svg viewBox="0 0 1117.9999999999998 1039.9999999999998" xmlns="http://www.w3.org/2000/svg" overflow="visible" xmlns:xlink="http://www.w3.org/1999/xlink" width="1117.9999999999998px" height="1039.9999999999998px"><g id="Master/Composition/Color Comp" stroke="none" stroke-width="1" fill="none" fill-rule="evenodd"><g id="Color/Bottom" transform="scale(1 1)"><g id="Color/Bottom/Balance" stroke="none" stroke-width="1" fill="none" fill-rule="evenodd"><g id="Color" transform="translate(20.000000, 373.000000)"><path d="M144.4153,439.0168 C159.6763,448.4758 166.5343,467.5878 178.3743,480.8148 C202.4643,509.1908 211.3243,547.7698 234.3223,576.1498 C247.7743,583.8908 252.2543,600.3418 263.0083,611.0368 C269.0133,618.1098 302.0763,660.5958 286.4863,664.2888 C270.4253,673.2848 256.9233,655.8338 241.8413,653.0638 C201.5373,653.7338 161.4513,647.9588 121.1383,648.5378 C86.2273,648.0468 52.2153,656.0948 17.5623,659.5358 C-32.2747,660.9818 41.3513,611.0688 26.3603,592.5228 C8.5513,557.6608 83.1103,526.1338 97.9123,499.4658 C104.4453,482.3358 124.8913,471.1758 127.7113,453.7028 C126.3763,444.4548 138.7873,443.5928 144.4153,439.0168" id="Fill-1" fill="#e25f5a"/><path d="M248.1626,117.3981 C246.2256,114.0021 242.1896,110.2611 238.4316,111.7801 C235.0296,115.1311 246.2846,127.1711 248.1626,117.3981 M143.1256,230.0201 C119.7226,218.2741 109.7346,186.9061 95.7566,165.4221 C81.7546,138.0441 59.5796,116.4881 39.9506,92.9101 C38.0476,90.1711 36.2336,87.5871 32.3116,87.6201 C22.2286,82.3651 32.7206,64.3071 41.5616,61.3761 C78.9636,44.1591 104.4996,7.3521 148.0026,2.7451 C181.9946,-13.6409 217.5576,90.7731 231.8806,89.3751 C259.9396,87.3281 276.9336,111.1751 259.1656,135.1211 C251.4346,144.7391 268.9456,158.0291 255.6336,165.5651 C213.1916,178.6101 184.3226,216.2381 143.1256,230.0201" id="Fill-3" fill="#f4c1bf"/><path d="M317.0159,250.4538 C317.7729,246.3608 317.9889,242.7948 313.3909,240.2148 C304.8359,228.3558 321.5159,214.2198 330.7029,207.7828 C341.0299,202.1828 352.3189,189.6428 364.8469,194.9278 C380.6249,198.5968 398.5659,190.9008 410.0699,206.6198 C436.3489,247.9238 450.7899,290.2788 384.5919,291.2318 C349.2949,294.3958 318.5979,294.0968 317.0159,250.4538" id="Fill-6" fill="#696d92"/><path d="M516.2767,620.7492 C504.0787,616.2372 486.6217,622.5222 480.4597,608.6032 C476.9757,600.7802 468.6767,598.0312 464.5507,591.1452 C461.6687,588.5852 455.7617,590.2382 452.0637,589.6642 C442.3317,588.4092 437.1987,581.2142 439.4047,571.3012 C440.0397,562.6622 429.6717,556.6752 439.8437,550.1422 C447.2067,544.4152 505.6447,510.4902 507.9467,525.3092 C513.7967,529.2612 520.2817,523.7872 521.2587,534.3442 C526.8367,550.6172 542.6257,525.7822 550.1697,541.8492 C559.9407,549.0032 553.3717,567.0842 567.9627,563.5072 C569.3497,563.6602 571.5087,564.1602 571.8637,565.0742 C574.1067,571.2912 581.7687,579.4912 574.9467,585.3332 C557.2337,599.1772 537.2557,612.7702 516.2767,620.7492" id="Fill-8" fill="#b5b7c9"/><path d="M437.2456,472.3722 C421.0826,464.9032 399.9086,456.8312 395.0766,437.7742 C394.8466,436.5832 392.6386,435.0272 391.2856,434.9652 C382.3616,435.6492 373.3036,437.3172 364.3026,437.3192 C347.7396,434.6152 357.8906,414.2182 368.1826,409.6422 C387.5466,400.9352 403.7516,385.0082 425.5176,383.5262 C433.4586,381.3312 442.1726,393.7852 437.9906,400.7792 C436.7236,402.7622 436.1716,404.5222 439.5786,405.4152 C447.7276,408.6802 455.1946,420.6262 445.5326,426.4512 C428.9576,437.8892 482.0726,461.5282 437.2456,472.3722" id="Fill-10" fill="#f4c1bf"/><path d="M99.2688,414.5514 C57.6908,401.9424 202.0928,298.1624 219.1428,285.3774 C225.1788,280.4664 233.3558,287.0644 230.4548,294.1474 C222.8288,313.6844 202.3408,324.0834 188.3758,338.7804 C158.7388,362.5664 133.2478,398.7714 99.2688,414.5514" id="Fill-12" fill="#b5b7c9"/><path d="M73.5376,386.5275 C47.6116,380.2295 93.3976,339.7545 101.0586,329.6455 C124.6486,297.6055 274.8376,208.9015 167.6316,299.2985 C153.9296,310.6295 139.6176,321.2975 126.6286,333.3905 C107.6786,349.1445 95.1206,374.6325 73.5376,386.5275" id="Fill-14" fill="#b5b7c9"/><path d="M144.4153,439.0168 C69.2003,459.8158 229.2083,336.4918 240.0453,325.9298 C285.7333,323.5218 150.9763,424.1508 144.4153,439.0168" id="Fill-16" fill="#b5b7c9"/><path d="M147.3335,244.3317 C168.0045,248.1977 116.5075,286.6237 110.8455,294.3647 C95.1895,307.4627 84.8695,325.5287 70.6745,339.6687 C65.4285,344.1937 56.1375,336.1317 59.3635,329.9497 C79.8845,294.5247 114.7255,267.8057 147.3335,244.3317" id="Fill-18" fill="#b5b7c9"/></g><g id="Ink" transform="translate(0.000000, 350.000000)" fill="#000000"><path d="M159.7036,17.1961 C138.7036,33.5971 116.5476,48.1221 94.0356,62.4221 C78.8786,72.9451 61.5576,80.7101 47.9766,93.3111 C40.4586,100.6451 54.0616,106.1831 57.6066,111.8001 C95.0386,156.1961 132.1446,200.7941 169.5366,245.1381 C171.8756,248.2071 174.6306,245.7481 176.5286,243.3281 C205.0986,209.4091 239.6746,180.9381 267.2496,146.3151 C278.6296,139.3361 232.7436,104.3801 226.8736,95.5631 C199.5456,73.7511 183.1616,42.2611 159.7036,17.1961 M154.4966,269.2471 C72.6756,262.9521 44.5296,353.1301 90.2296,411.1701 C96.6096,422.8331 150.5266,448.2281 162.5076,443.3341 C172.5606,439.3571 177.5866,454.4731 187.7136,452.7471 C315.9356,449.0281 291.2086,264.9241 154.4966,269.2471 M167.1986,669.9231 C199.7256,670.1061 253.8886,670.3361 291.8246,667.8651 C294.6286,667.7461 295.6626,665.7931 294.1986,663.4371 C278.1046,639.2771 265.6246,612.6801 248.1276,589.4641 C220.8226,550.0171 190.5856,512.8511 165.2186,472.1181 C159.4786,464.8381 141.4766,496.7891 135.1416,500.8381 C92.0566,551.8101 57.9556,609.9031 21.8346,665.8881 C18.7426,669.9391 23.0196,672.1661 26.8946,671.6831 C76.4686,672.6251 111.3146,671.0791 167.1986,669.9231 M281.3346,155.4871 C252.4736,186.2401 222.1856,215.5981 193.0116,246.2171 C187.5316,251.2171 184.8836,255.6871 194.2326,257.4481 C310.0776,282.6891 316.3656,457.1151 190.7776,467.3831 C208.2156,503.6121 237.9356,532.6611 257.1626,568.1611 C281.3786,599.2851 294.2356,639.0361 318.7056,669.0211 C321.3466,669.7121 321.0946,673.4391 320.3816,675.6841 C324.2146,683.1301 315.9716,687.4021 309.6116,686.3371 C275.0046,686.5251 240.0636,685.9611 205.4816,688.3731 C149.8036,687.4161 93.7516,690.8581 37.9396,686.5361 C28.3276,683.7621 -2.7054,689.0701 0.1896,674.2451 C33.8966,595.4031 91.0576,529.7441 143.0386,462.8911 C150.7706,450.4981 84.6646,446.5811 70.0586,407.6131 C30.3146,335.8041 59.9386,254.4261 148.8956,253.0611 C161.2276,251.2191 112.0576,207.2601 107.1786,201.8661 C81.6206,174.5691 61.1036,142.9591 34.8506,116.1941 C9.9376,93.2621 47.2026,71.9651 65.6116,61.2561 C95.9406,42.6941 127.2296,25.6511 156.8186,5.9351 C160.2276,3.6401 170.3256,-3.0399 170.2726,4.4661 C169.2856,7.2661 169.4966,9.3501 171.7276,11.2381 C184.0556,21.6721 192.6186,35.3481 202.7226,47.6671 C224.8616,73.1811 251.1496,94.4531 272.9736,120.2111 C283.6356,130.5891 297.1856,144.2481 298.6046,159.2081 C295.0906,170.5691 285.3286,162.0011 281.3346,155.4871" id="Fill-1"/><path d="M575.8915,589.8832 C566.3455,580.2682 538.3295,537.4942 526.3585,542.6182 C516.4885,545.7722 446.2175,568.4232 454.5125,577.6912 C478.0185,596.2802 499.9465,617.4092 525.6295,632.9612 C528.8355,634.3532 531.5785,631.2902 533.6985,629.1862 C547.2655,615.7582 564.3765,604.8812 575.8915,589.8832 M597.8055,587.9322 C584.4435,605.3482 563.2585,616.9882 547.2295,632.4322 C538.6045,636.8862 536.4495,655.3262 523.9365,647.2122 C494.7075,630.8712 469.7345,608.3632 446.2215,584.7682 C439.6735,576.6492 435.2525,584.5872 429.0825,582.6152 C434.2485,562.0642 484.0545,538.1382 503.5555,528.9552 C513.4865,525.4452 527.5925,517.5732 537.3275,524.3142 C560.1755,542.8552 578.9195,565.5392 597.8055,587.9322" id="Fill-4"/><path d="M382.6208,218.638 C321.6858,217.262 324.5458,315.849 399.0828,304.319 C454.6878,302.52 428.0948,213.229 382.6208,218.638 M389.8038,317.901 C350.0388,322.12 316.6958,286.597 331.2628,246.633 C331.6458,245.361 331.9648,242.898 331.5638,242.725 C315.3708,234.434 361.0638,202.136 371.0218,206.732 C444.2638,176.978 487.8828,322.308 389.8038,317.901" id="Fill-6"/><path d="M455.1589,405.3333 C458.0999,391.7623 396.3009,431.7793 388.0199,433.5693 C384.0029,435.6733 383.9329,437.4553 387.6799,439.4433 C398.9709,445.4323 409.1349,453.0223 418.8769,461.1983 C483.0809,509.5733 439.2929,465.0903 455.1589,405.3333 M471.7069,394.8083 C448.5339,461.2093 506.9229,538.0083 400.2339,463.4863 C390.4199,455.7403 379.0099,451.1783 367.7659,446.0283 C349.6909,432.2653 380.4289,417.5913 391.8579,412.7863 C404.8609,411.2373 477.3689,367.2783 471.7069,394.8083" id="Fill-8"/></g></g></g><g id="Color/Top" transform="scale(1 1)"><g id="Color/Top/Grab" stroke="none" stroke-width="1" fill="none" fill-rule="evenodd"><g id="Color" transform="translate(171.000000, 12.000000)"><path d="M226.9362,748.4349 C341.8072,750.6339 457.7162,773.2749 572.0312,755.8819 C608.1082,762.9639 658.3922,858.4269 689.9412,886.8759 C700.1992,898.8579 736.5442,931.4719 705.5872,938.2329 C696.2852,935.6399 686.9932,936.8749 677.5562,937.8029 C639.4752,939.4489 601.4132,941.5089 563.2972,940.5489 C462.7002,941.4549 362.3152,937.8739 263.8532,913.8209 C221.6322,911.7209 153.0662,899.8609 225.0092,861.3729 C231.4642,858.8719 230.8842,854.7889 224.6282,856.1499 C192.1972,855.0059 167.3512,831.1669 205.1642,810.2059 C275.2252,788.8299 226.1992,807.4359 188.1862,774.9749 C170.3282,758.3709 217.2692,745.7899 226.9362,748.4349" id="Fill-1" fill="#f4c1bf"/><path d="M72.7836,312.0784 C60.1866,345.2184 80.5606,394.6414 46.6036,418.7864 C-11.7024,415.5454 3.2616,335.2174 2.0976,294.3924 C-8.4434,230.3214 21.5236,163.5974 74.3006,126.4834 C108.8036,95.6644 127.5876,127.6004 151.8566,152.7354 C179.0796,180.4434 206.9246,207.5484 234.2006,235.2084 C246.7476,244.6804 232.2006,252.9144 232.7576,264.5614 C233.4136,284.8924 233.0286,305.1594 231.1416,325.4024 C227.0946,350.5044 238.3316,375.2884 232.3496,399.9314 C227.7736,449.5484 192.3756,446.3274 165.4366,413.1714 C150.0856,392.1304 153.2906,365.0664 152.6836,340.5724 C155.1206,328.3624 145.8646,327.3304 148.4956,340.4564 C147.4486,374.7144 156.6136,420.2284 123.3286,442.2384 C89.8356,449.7584 72.6766,394.5804 73.0546,367.8514 C72.8566,349.0304 76.1256,330.8364 72.7836,312.0784" id="Fill-3" fill="#f4c1bf"/><path d="M463.853,148.6541 C438.987,161.0051 414.022,165.3501 391.731,146.5041 C386.249,142.5651 385.52,138.3191 388.979,132.1941 C402.605,112.7691 424.487,99.9661 444.068,87.0251 C449.732,81.9731 495.711,65.3891 468.606,66.9031 C373.734,53.2451 437.873,7.3531 493.639,2.3581 C561.832,-4.6689 632.218,4.7021 698.421,21.3261 C720.412,23.5041 738.595,42.9801 716.524,60.0241 C687.133,81.8001 655.957,101.0761 626.813,122.4671 C578.903,156.9621 532.939,194.1711 484.17,227.6481 C461.97,240.5391 413.098,311.6931 395.089,264.3371 C394.108,212.2671 424.885,170.1391 470.118,147.7671 C467.782,147.0931 465.762,146.8611 463.853,148.6541" id="Fill-6" fill="#b5b7c9"/><path d="M890.9733,440.6659 C904.7773,439.3939 923.6303,428.7589 933.8903,442.6789 C939.2673,451.0399 944.2613,459.5759 938.0853,469.9299 C932.9243,482.0819 921.3303,490.1189 916.2473,501.7759 C924.9383,502.9259 934.6723,497.7379 940.2793,507.5959 C956.2593,531.2479 924.3613,550.4459 913.4053,569.0409 C907.9213,574.3629 918.4933,581.4819 919.5613,587.7419 C922.5713,610.5419 901.7623,637.5669 879.1903,642.6439 C844.6493,652.6529 808.2313,647.9119 773.3643,642.0739 C752.1043,637.8239 743.8743,617.8089 750.7013,598.4889 C761.4603,560.4999 771.6503,522.3439 783.0253,484.5319 C798.7453,445.1789 832.2143,412.9949 867.7913,390.9009 C877.0213,386.2529 895.2943,380.2609 901.1713,391.9929 C906.6443,399.8579 909.6003,407.5459 903.2983,415.8539 C898.2123,424.3379 891.6033,432.1339 887.5373,441.1229 C888.6823,440.9699 889.8273,440.8179 890.9733,440.6659" id="Fill-8" fill="#e25d59"/><path d="M277.3659,351.9944 C278.1729,335.7574 282.7969,277.6404 305.8569,282.6674 C314.5889,284.0724 320.1619,271.6744 326.6569,282.1354 C344.0799,300.2004 407.6949,374.7644 348.2729,372.8324 C339.1809,372.8544 326.4939,349.2604 322.1019,359.9354 C306.8299,396.6824 274.8369,392.6274 277.3659,351.9944" id="Fill-11" fill="#676b90"/><path d="M254.5138,242.6575 C246.4548,242.4375 245.6768,242.2255 243.9018,233.5785 C240.6488,217.7235 233.5728,203.6315 226.2328,189.3505 C209.4308,152.2375 181.5138,116.4935 177.7778,75.2175 C181.4428,62.2755 196.5268,68.8465 199.2518,79.1045 C207.0318,103.5295 293.6528,237.9805 254.5138,242.6575" id="Fill-13" fill="#f4c1bf"/><path d="M314.342,208.7371 C314.508,213.8141 312.68,219.8511 306.55,219.0811 C295.089,220.7761 294.89,220.8431 291.597,209.6191 C283.865,163.6051 264.395,120.7581 253.717,75.9161 C272.674,15.5701 312.931,193.3941 314.342,208.7371" id="Fill-15" fill="#f4c1bf"/></g><g id="Ink" transform="translate(164.000000, 0.000000)" fill="#000000"><path d="M465.3755,77.2074 C409.2965,58.2494 447.8335,7.2164 488.3465,4.9294 C561.0645,-3.1916 640.0645,-0.5096 707.4635,30.1144 C737.1185,46.5144 781.5435,57.5514 794.6645,90.9724 C777.2345,84.1874 761.3865,70.4334 742.8905,64.2074 C699.7835,44.0444 656.1775,26.5584 608.1895,23.6224 C562.7835,19.1654 506.1105,11.3764 465.1475,34.5124 C429.5985,66.2774 503.6155,62.5474 521.3855,61.4784 C536.5875,60.8034 541.1715,60.7094 542.8025,77.2304 C538.2865,81.2124 532.8895,82.5794 526.9175,82.2154 C503.7085,81.3074 482.0485,91.2554 461.5265,100.8514 C431.8525,117.8484 363.2605,178.7024 445.8955,150.4154 C455.8315,148.6864 495.2265,130.3644 499.9235,139.6824 C498.7565,144.5954 506.0825,150.8564 500.1855,153.9354 C477.0555,164.2124 458.4175,179.7514 443.2805,199.7894 C419.8215,222.7614 410.3885,298.6474 461.7115,271.8834 C489.8105,247.5014 512.9445,217.9384 539.7575,191.9624 C543.8055,189.1744 545.8915,194.5124 546.1145,197.8404 C548.9765,206.6714 562.6845,202.9754 562.8825,215.2104 C571.7255,251.9634 577.0315,289.2734 582.0345,326.6924 C598.2435,403.0044 577.9245,403.8614 643.7495,363.4104 C649.9525,358.7584 662.4695,362.4244 660.1165,371.7974 C659.7165,374.5344 659.9935,376.8224 661.3845,379.0434 C671.5195,394.0794 683.8695,407.5354 694.8145,421.9934 C705.9275,433.8844 752.3275,411.3664 752.6855,394.5534 C755.5115,382.9994 754.3765,371.6714 752.9055,359.9704 C752.8675,354.4254 760.6915,356.0844 764.4355,354.7234 C771.3205,354.0134 770.4415,363.8564 771.4265,368.4224 C777.7315,461.1754 642.5405,413.8944 756.0375,464.5204 C790.1005,479.5664 789.9575,461.8404 806.1695,437.2334 C818.2085,415.5604 857.4695,376.5784 870.3675,417.9874 C866.6575,418.5094 865.5425,415.7194 863.9475,414.2204 C850.4355,401.1344 837.0205,421.0634 828.9415,430.7804 C821.0635,442.5264 814.3395,455.0414 806.9695,467.1364 C802.9895,472.5344 807.9965,474.0184 809.1695,478.5664 C784.4985,487.1544 781.3035,537.5294 776.1815,560.7204 C763.2165,647.8084 735.6795,630.3104 830.0845,646.1624 C836.6385,648.7764 850.7905,644.4984 851.8595,653.2174 C850.7335,657.9134 853.0615,666.7694 845.4425,665.5034 C744.0175,657.7324 766.9815,622.7824 740.7415,686.8454 C716.8535,734.0534 668.1825,769.9634 614.7485,773.8874 C553.0495,782.1284 491.1445,781.7414 429.1725,783.2314 C351.4605,783.1474 269.6145,751.8684 194.3815,779.6334 C188.7095,796.9184 328.0395,800.9524 307.2945,823.1924 C277.0235,831.9914 243.3215,824.2124 214.4045,841.6114 C199.1325,849.0924 200.7195,851.8564 217.7445,852.6584 C239.8485,854.2044 261.9725,854.9444 283.6345,860.0414 C316.9845,877.0784 266.7785,880.5994 253.6075,881.7284 C244.3765,882.1774 208.9705,893.7104 226.6315,903.0104 C240.5845,910.0264 256.4085,903.9794 270.1335,910.8414 C318.3965,916.9894 366.7675,926.5724 415.7345,929.2344 C480.7335,932.8284 545.3335,930.6454 610.3875,928.4294 C672.4445,925.1544 773.4995,930.4204 820.3825,885.8804 C832.2645,870.9534 842.0235,854.8044 845.1535,835.6754 C847.2315,827.2734 848.3195,817.9574 856.1245,812.7894 C858.7175,810.5644 862.7485,813.8834 864.8905,810.2954 C864.9285,810.2314 866.2285,810.6724 866.6665,811.1364 C889.5465,830.7624 862.5395,859.9144 852.1215,879.5244 C797.7415,960.4844 614.8565,947.3464 525.7325,950.7264 C469.9025,948.6844 413.7415,950.1004 358.1655,944.3874 C319.0615,944.5664 281.7265,931.1234 243.1925,926.7764 C222.3775,926.6114 189.9925,909.4134 209.8735,886.4354 C213.5365,878.7364 229.9365,878.3234 230.2715,870.8764 C145.1775,865.6114 188.0945,833.6914 238.9755,815.1084 C221.3105,806.3124 204.0375,806.6034 186.8295,797.5514 C147.2995,767.5284 221.5175,752.7254 243.3175,752.3384 C317.8935,748.2824 391.2845,767.6924 465.8365,764.5404 C567.6565,765.2964 696.0385,777.5684 736.0735,658.4844 C754.8775,604.1514 753.6305,544.6594 775.8455,491.3984 C777.0565,488.8314 777.4995,484.9264 773.5765,484.8974 C751.4975,484.9964 731.8505,476.1574 712.2125,467.7214 C681.8935,451.5954 662.7515,419.3024 643.3625,391.9204 C637.1925,375.5444 597.5865,421.0704 588.4285,408.8514 C557.3135,381.1884 552.8605,272.8664 543.2655,228.6404 C543.2225,226.4244 542.1825,222.3774 539.3775,223.9044 C505.0345,245.7014 481.4075,301.5594 434.2185,291.5124 C415.8225,287.7564 398.9645,252.2694 412.9175,238.6254 C402.9575,218.3494 433.1075,187.8724 444.0375,171.3704 C333.0445,186.3634 417.5355,100.5994 465.3755,77.2074" id="Fill-1"/><path d="M202.6678,459.7523 C184.4958,453.7133 175.2038,435.3873 167.3138,419.0133 C159.5308,438.5263 150.2448,461.2693 125.5878,460.3913 C96.4538,461.0853 87.9228,425.1203 80.1898,402.5683 C72.2768,414.5143 74.9298,431.4923 63.3388,439.8923 C39.3448,449.9253 23.6678,422.3153 13.4678,404.8833 C1.6798,370.1043 -2.1492,332.1143 1.1178,295.4823 C-1.7572,202.9413 32.3648,142.7663 118.2778,105.4133 C194.7578,70.9123 277.0258,49.0293 361.3558,60.7003 C379.3648,63.2973 401.9418,61.6023 413.7348,78.0533 C307.3108,70.7303 233.4988,69.9853 133.4088,114.1053 C32.3678,159.1733 18.8778,214.3753 16.8788,317.6173 C13.1858,338.9683 21.6208,359.1043 23.5058,380.1043 C25.1318,399.4173 34.8848,418.8353 50.8058,429.9743 C65.2978,434.8503 68.2018,358.1703 71.6298,345.5803 C73.5418,335.8703 70.1678,324.3323 75.8268,315.7673 C81.1578,309.9123 90.2438,308.7853 92.5278,317.9993 C97.1528,342.8503 97.1058,368.6193 100.2478,393.7593 C101.8008,411.3203 107.5658,429.4033 120.9228,441.6303 C152.7618,459.8093 156.0188,373.7983 156.2758,355.1513 C153.4088,313.9143 179.7828,317.0553 178.7298,355.8993 C181.5748,381.8493 177.2238,410.5573 193.1908,432.9763 C227.8018,474.6003 220.2778,418.0493 220.4338,394.6313 C220.4248,375.3763 220.6998,356.1203 220.5998,336.8653 C219.8218,312.8713 212.6938,282.4223 235.3008,265.9293 C274.5818,236.9583 323.4038,221.3493 372.2298,219.8963 C397.5148,227.7993 361.8748,239.5473 351.3738,237.6693 C329.2928,237.0653 307.1458,244.4343 288.5738,256.0693 C283.8958,261.0893 276.9468,257.0763 271.5148,261.3253 C259.0718,270.7903 237.9388,276.8103 238.0138,295.2863 C240.0858,334.0543 240.4288,372.9113 240.1478,411.7843 C241.4748,434.8973 234.1478,474.2393 202.4748,459.5013 C203.6688,460.4033 204.6938,460.6233 205.9758,459.7253 C204.8338,458.6483 203.8608,459.0043 202.6678,459.7523" id="Fill-4"/><path d="M692.6956,275.4969 C652.3186,284.1939 616.5136,187.5199 669.5536,255.5409 C680.8576,268.0089 711.1296,266.4529 711.4496,246.4359 C711.3436,226.5719 694.3936,223.3599 695.3096,210.1599 C711.5206,189.2699 753.7686,274.5419 692.6956,275.4969" id="Fill-6"/></g></g></g></g></svg>